<svg width="48" height="28" viewBox="0 0 48 28" fill="none" xmlns="http://www.w3.org/2000/svg">
<path d="M45.8734 21.4725C44.829 20.2208 43.6491 19.1033 42.5079 18.0225C42.1069 17.6426 41.692 17.2498 41.2925 16.8598L41.2923 16.8595C40.7549 16.3354 40.4919 15.9634 40.4644 15.6886C40.4374 15.4185 40.6219 15.0178 41.0465 14.4255C41.6812 13.5346 42.3578 12.6423 43.0124 11.7793C43.5942 11.0122 44.1957 10.219 44.7722 9.4212L44.9016 9.24209C46.0265 7.6852 47.1895 6.07534 47.8128 4.11352C47.9907 3.55105 48.1756 2.71869 47.7298 1.98798C47.2838 1.25708 46.4569 1.04045 45.8742 0.941239C45.5896 0.892475 45.3195 0.888442 45.0682 0.888442L37.7718 0.881972C36.5103 0.860966 35.6352 1.45889 35.1582 2.65961C34.7765 3.61857 34.3258 4.72992 33.8035 5.78416C32.8043 7.8194 31.5347 10.1635 29.6944 12.1166L29.6126 12.2037C29.4873 12.3374 29.2826 12.5561 29.1775 12.6062C28.9781 12.481 28.7481 11.7644 28.7586 11.389C28.7589 11.3797 28.759 11.3705 28.759 11.3614L28.7525 2.93053C28.7525 2.88767 28.7495 2.84482 28.7438 2.80233C28.5801 1.59955 28.2611 0.393769 26.3574 0.018099C26.2964 0.0060018 26.2343 0 26.1722 0H18.5824C17.1545 0 16.3992 0.653906 15.7937 1.36286C15.6184 1.56954 15.1527 2.11833 15.39 2.78921C15.63 3.46806 16.3454 3.60356 16.5802 3.64802C17.4073 3.805 17.835 4.27248 17.9674 5.16617C18.2291 6.90264 18.2612 8.76026 18.0685 11.0093C18.0148 11.6131 17.9148 12.0721 17.7535 12.4538C17.7089 12.5594 17.6697 12.6249 17.6423 12.6634C17.5986 12.6458 17.5306 12.6121 17.4364 12.5476C16.8552 12.1499 16.4172 11.5317 15.9936 10.9339C14.3017 8.54514 12.8785 5.90682 11.6423 2.86704C11.1331 1.6214 10.176 0.925672 8.94907 0.907667C6.6114 0.868749 4.44938 0.869687 2.34165 0.910667C1.34752 0.927922 0.650379 1.24086 0.26927 1.84093C-0.112308 2.44214 -0.0983355 3.20867 0.310907 4.11962C3.23637 10.6249 5.8927 15.3573 8.92357 19.4641C11.0576 22.3555 13.2059 24.3625 15.6841 25.7804C18.2879 27.27 21.2245 28.0001 24.6312 28C25.0186 28 25.4127 27.9905 25.8121 27.9715C27.914 27.8757 28.7691 27.0397 28.8624 24.9927C28.9147 23.9108 29.0351 23.0343 29.4529 22.2729C29.5698 22.0597 29.7016 21.9168 29.8055 21.8906C29.916 21.8631 30.1119 21.9307 30.3297 22.0722C30.728 22.3308 31.071 22.6815 31.3529 22.9894C31.6388 23.3023 31.9276 23.6256 32.2072 23.9381C32.802 24.6037 33.4171 25.2919 34.0615 25.9483C35.5191 27.4342 37.1994 28.1155 39.0577 27.9728L45.7351 27.9759C45.7353 27.9759 45.7355 27.9759 45.7355 27.9759C45.7567 27.9759 45.7779 27.9752 45.7991 27.9738C46.5693 27.9225 47.2352 27.4961 47.6262 26.8037C48.0971 25.9698 48.09 24.9136 47.6068 23.9773C47.1027 23.0038 46.4486 22.1659 45.8734 21.4725ZM45.9607 25.8632C45.8686 26.0263 45.755 26.056 45.6964 26.0631L39.0204 26.06C39.0202 26.06 39.02 26.06 39.0198 26.06C38.9934 26.06 38.9671 26.0611 38.9409 26.0633C37.6257 26.1728 36.5078 25.7105 35.4267 24.6087C34.8135 23.9839 34.2135 23.3127 33.6333 22.6636C33.3506 22.3473 33.0583 22.0201 32.7646 21.6987C32.4003 21.3009 31.9501 20.8437 31.3716 20.468C30.5055 19.9058 29.7877 19.9228 29.3382 20.0361C28.8935 20.1482 28.2612 20.4679 27.7759 21.3536C27.1472 22.4994 27.0085 23.7356 26.9521 24.9034C26.9194 25.6176 26.7987 25.8063 26.7482 25.8542C26.6821 25.917 26.4612 26.0275 25.724 26.0612C22.1815 26.2277 19.2085 25.5933 16.6341 24.1204C14.3945 22.839 12.4334 20.9984 10.4627 18.3285C7.51579 14.3356 4.92285 9.71163 2.05563 3.33574C1.95172 3.10477 1.91965 2.96063 1.91037 2.88345C1.98351 2.85945 2.12643 2.82784 2.377 2.82325C4.46335 2.78283 6.60277 2.7817 8.91934 2.82034C9.2365 2.82503 9.59763 2.92021 9.87109 3.58931C11.1628 6.76544 12.6549 9.52951 14.4329 12.0397C14.9049 12.706 15.4925 13.5354 16.3561 14.1263C17.1471 14.6679 17.789 14.642 18.1883 14.525C18.5878 14.4079 19.1422 14.0825 19.5157 13.1983C19.7566 12.6285 19.9022 11.9867 19.9743 11.176C20.1804 8.7703 20.1438 6.77022 19.8595 4.88371C19.6591 3.53211 18.9612 2.5557 17.8618 2.05709C18.0571 1.95544 18.2771 1.91305 18.5826 1.91305H26.0732C26.4946 2.00758 26.5781 2.11861 26.6067 2.15659C26.7281 2.31798 26.7974 2.69974 26.8398 2.99805L26.8462 11.3511C26.8293 12.1519 27.2185 13.9278 28.5436 14.4148C28.5544 14.4189 28.5654 14.4226 28.5764 14.4262C29.7827 14.8204 30.5807 13.9688 31.0091 13.5113L31.0854 13.4301C33.1012 11.2906 34.4586 8.79065 35.5192 6.6305C36.0719 5.51502 36.54 4.36119 36.9359 3.36659C37.1339 2.86779 37.3141 2.78564 37.7442 2.79474C37.7501 2.79493 37.7559 2.79493 37.7619 2.79493L45.0676 2.8014C45.2375 2.8014 45.4149 2.80337 45.5524 2.82691C45.9006 2.88617 46.0439 2.95838 46.0912 2.98829C46.0961 3.04372 46.0949 3.20314 45.9897 3.53586C45.4598 5.20406 44.4357 6.6214 43.3515 8.12202L43.222 8.30141C42.6587 9.08088 42.0639 9.86514 41.4887 10.6237C40.8257 11.4978 40.1404 12.4015 39.4906 13.3136C38.1014 15.2519 38.2235 16.5381 39.9572 18.2291C40.3669 18.6291 40.7868 19.0269 41.193 19.4115C42.3447 20.5024 43.4326 21.5328 44.4035 22.6962C44.9118 23.3089 45.4879 24.0448 45.9079 24.8558C46.1269 25.2803 46.0732 25.6638 45.9607 25.8632Z" fill="#C0932C"/>
<path d="M6.96833 5.90117C6.82785 5.62321 6.68859 5.34451 6.55065 5.06524C6.31658 4.59176 5.74341 4.39727 5.26956 4.63133C4.79599 4.86531 4.60168 5.43885 4.83565 5.91242C4.97623 6.19694 5.11811 6.4809 5.26112 6.76401C5.42945 7.0971 5.7662 7.28916 6.11543 7.28916C6.26041 7.28916 6.40773 7.25606 6.54605 7.18619C7.01766 6.94781 7.20662 6.37258 6.96833 5.90117Z" fill="#C0932C"/>
<path d="M12.9673 15.8234C11.399 13.6985 9.93178 11.3905 8.48199 8.76767C8.22645 8.30535 7.64447 8.13787 7.18225 8.39332C6.72002 8.64886 6.55235 9.23084 6.80789 9.69306C8.29857 12.3897 9.80997 14.7666 11.4284 16.9594C11.6159 17.2135 11.9054 17.3479 12.1987 17.3479C12.396 17.3479 12.595 17.2871 12.7658 17.1608C13.1907 16.8472 13.2809 16.2484 12.9673 15.8234Z" fill="#C0932C"/>
</svg>
